<svg width="155" height="163" viewBox="0 0 155 163" fill="none" xmlns="http://www.w3.org/2000/svg">
<g clip-path="url(#clip0_103_53)">
<path d="M75.7382 79.7285C74.7671 79.7285 73.9766 80.5231 73.9766 81.5005C73.9766 82.4773 74.7665 83.2725 75.7382 83.2725C76.7092 83.2725 77.4998 82.4779 77.4998 81.5005C77.4998 80.5237 76.7098 79.7285 75.7382 79.7285Z" fill="#FF6600"/>
<path d="M119.773 81.5005C119.773 80.5219 120.561 79.7285 121.534 79.7285H126.785C126.351 66.8967 121.216 55.2454 113.062 46.4625L109.367 50.1799C109.023 50.5255 108.572 50.6989 108.122 50.6989C107.671 50.6989 107.22 50.5261 106.877 50.1799C106.189 49.488 106.189 48.3659 106.877 47.674L110.572 43.9567C101.841 35.7548 90.2579 30.5906 77.5013 30.1533V35.4348C77.5013 36.4133 76.7131 37.2068 75.7397 37.2068C74.7669 37.2068 73.9781 36.4133 73.9781 35.4348V30.1533C61.2214 30.5906 49.6384 35.7548 40.907 43.9567L44.6026 47.674C45.2904 48.3659 45.2904 49.488 44.6026 50.1799C44.2584 50.5255 43.808 50.6989 43.357 50.6989C42.906 50.6989 42.4556 50.5261 42.1114 50.1799L38.4158 46.4625C30.262 55.2448 25.1281 66.8967 24.6934 79.7285H29.9439C30.9167 79.7285 31.7055 80.5213 31.7055 81.5005C31.7055 82.479 30.9167 83.2724 29.9439 83.2724H24.6934C25.1281 96.1043 30.262 107.756 38.4158 116.538L42.1114 112.821C42.7992 112.129 43.9142 112.129 44.6026 112.821C45.2904 113.513 45.2904 114.634 44.6026 115.326L40.907 119.044C49.6384 127.246 61.2214 132.41 73.9781 132.847V127.566C73.9781 126.587 74.7663 125.794 75.7397 125.794C76.7125 125.794 77.5013 126.586 77.5013 127.566V132.847C90.2579 132.41 101.841 127.246 110.572 119.044L106.877 115.326C106.189 114.634 106.189 113.513 106.877 112.821C107.564 112.129 108.68 112.129 109.367 112.821L113.063 116.538C121.217 107.756 126.351 96.1043 126.785 83.2724H121.535C120.562 83.2724 119.773 82.4796 119.773 81.5005H119.773ZM93.3522 83.2724H80.7145C79.9873 85.3334 78.0347 86.8158 75.7385 86.8158C72.8248 86.8158 70.4543 84.4314 70.4543 81.5005C70.4543 79.1913 71.928 77.2273 73.9769 76.4951V53.1523C73.9769 52.1737 74.7652 51.3803 75.7385 51.3803C76.7113 51.3803 77.5001 52.1737 77.5001 53.1523V76.4951C78.9971 77.0299 80.1829 78.2227 80.7145 79.7285H93.3522C94.325 79.7285 95.1138 80.5213 95.1138 81.5005C95.1138 82.479 94.3256 83.2724 93.3522 83.2724Z" fill="#FF6600"/>
<path d="M147.954 81.4997C147.954 41.4447 115.558 8.8584 75.7382 8.8584C35.9179 8.8584 3.52246 41.4447 3.52246 81.4997C3.52246 121.554 35.9179 154.141 75.7382 154.141C115.558 154.141 147.954 121.554 147.954 81.4997ZM114.348 120.337C114.278 120.407 114.201 120.465 114.124 120.521C104.253 130.347 90.6883 136.423 75.7382 136.423C60.7875 136.423 47.2229 130.346 37.3521 120.521C37.2749 120.465 37.1977 120.407 37.1287 120.337C37.059 120.267 37.0016 120.19 36.9458 120.112C27.1778 110.184 21.1361 96.539 21.1361 81.5003C21.1361 66.4615 27.1778 52.8169 36.9458 42.8886C37.0016 42.8109 37.059 42.7333 37.1287 42.6638C37.1983 42.5938 37.2749 42.5359 37.3521 42.4805C47.2229 32.6543 60.7875 26.577 75.7387 26.577C90.6894 26.577 104.254 32.6543 114.125 42.4799C114.202 42.5359 114.279 42.5938 114.348 42.6638C114.418 42.7339 114.475 42.8109 114.532 42.8886C124.299 52.8175 130.341 66.4621 130.341 81.5008C130.341 96.5396 124.299 110.184 114.531 120.113C114.476 120.191 114.418 120.268 114.349 120.338L114.348 120.337Z" fill="#FF6600"/>
<path d="M8.80684 129.337C3.95097 129.337 0 133.311 0 138.196C0 143.08 3.95097 147.054 8.80684 147.054C13.6627 147.054 17.6137 143.08 17.6137 138.196C17.6137 133.311 13.6627 129.337 8.80684 129.337Z" fill="#FF6600"/>
<path d="M144.432 5.31543C138.604 5.31543 133.863 10.0843 133.863 15.9461C133.863 21.808 138.604 26.5769 144.432 26.5769C150.259 26.5769 155 21.808 155 15.9461C155 10.0843 150.259 5.31543 144.432 5.31543Z" fill="#FF6600"/>
<path d="M103.92 7.08675C105.866 7.08675 107.443 5.50033 107.443 3.54338C107.443 1.58642 105.866 0 103.92 0C101.975 0 100.397 1.58642 100.397 3.54338C100.397 5.50033 101.975 7.08675 103.92 7.08675Z" fill="#FF6600"/>
<path d="M26.4211 10.6297C28.3665 10.6297 29.9437 9.0433 29.9437 7.08635C29.9437 5.12939 28.3665 3.54297 26.4211 3.54297C24.4756 3.54297 22.8984 5.12939 22.8984 7.08635C22.8984 9.0433 24.4756 10.6297 26.4211 10.6297Z" fill="#FF6600"/>
<path d="M5.28434 35.4344C7.22983 35.4344 8.80696 33.848 8.80696 31.891C8.80696 29.9341 7.22983 28.3477 5.28434 28.3477C3.33885 28.3477 1.76172 29.9341 1.76172 31.891C1.76172 33.848 3.33885 35.4344 5.28434 35.4344Z" fill="#FF6600"/>
<path d="M29.9435 155.913C31.889 155.913 33.4661 154.326 33.4661 152.37C33.4661 150.413 31.889 148.826 29.9435 148.826C27.998 148.826 26.4209 150.413 26.4209 152.37C26.4209 154.326 27.998 155.913 29.9435 155.913Z" fill="#FF6600"/>
<path d="M146.194 138.195C148.139 138.195 149.716 136.609 149.716 134.652C149.716 132.695 148.139 131.108 146.194 131.108C144.248 131.108 142.671 132.695 142.671 134.652C142.671 136.609 144.248 138.195 146.194 138.195Z" fill="#FF6600"/>
<path d="M125.057 163C127.002 163 128.579 161.413 128.579 159.456C128.579 157.5 127.002 155.913 125.057 155.913C123.111 155.913 121.534 157.5 121.534 159.456C121.534 161.413 123.111 163 125.057 163Z" fill="#FF6600"/>
</g>
<defs>
<clipPath id="clip0_103_53">
<rect width="155" height="163" fill="white"/>
</clipPath>
</defs>
</svg>
