<svg width="24" height="24" viewBox="0 0 24 24" fill="none" xmlns="http://www.w3.org/2000/svg">
<path fill-rule="evenodd" clip-rule="evenodd" d="M12.0417 1.89948C12.0417 1.89948 10.5595 1.72757 9.88873 2.07139C9.88873 2.07139 9.75231 1.85652 9.41687 1.85652C9.08144 1.85652 4.27246 1.85652 3.76933 1.85652C3.26621 1.85652 1.88163 2.20034 1.88163 3.61456C1.88163 5.02879 1.88163 15.819 1.88163 16.5535C1.88163 17.2879 2.44328 18.4834 3.80835 18.4834C5.17348 18.4834 6.46834 18.4834 6.46834 18.4834V20.3195C6.46834 20.3195 4.39344 20.3195 3.36375 20.3195C2.33405 20.3195 0 19.3785 0 16.9503C0 14.5221 0 4.84905 0 3.39575C0 1.94244 1.51331 0 3.39017 0C5.26702 0 8.13765 0 9.18291 0C10.2282 0 11.0862 0.848613 12.0416 1.89955L12.0417 1.89948ZM17.1572 4.7423C17.0812 4.69448 16.9706 4.651 16.8198 4.651C16.4843 4.651 11.6753 4.651 11.1722 4.651C10.6691 4.651 9.28452 4.99482 9.28452 6.40905C9.28452 7.82327 9.28452 19.4995 9.28452 20.2339C9.28452 20.9683 9.84617 22.1638 11.2112 22.1638H13.257H13.261H13.2718H13.273H13.2927H13.3123H13.3199H13.3516H13.3544H13.3897H13.3959H13.4265H13.4442H13.4621H13.4964H13.4991H13.5294H13.5604H13.5611H13.5914H13.6203H13.6278H13.6477H13.6738H13.6983H13.7011H13.7214H13.7429H13.7628H13.7801H13.7812H13.7979H13.813H13.8265H13.8382H13.8482H13.8565H13.863H13.8646H13.8676H13.8705H13.8714H20.1918C21.557 22.1638 22.1186 20.9683 22.1186 20.2339C22.1186 19.4995 22.1186 11.3783 22.1186 11.3783L22.133 10.1157C22.1368 9.78163 21.8086 9.2494 20.9223 9.2494L18.7441 9.26131C17.8369 9.26131 17.7188 8.93334 17.6143 8.75781C17.4343 8.45546 17.5603 5.69488 17.5603 5.69488C17.5468 5.21209 17.2918 4.86587 17.1573 4.74223L17.1572 4.7423ZM13.8712 23.9999H13.8697H13.8653H13.8579H13.8498H13.8477H13.8348H13.8192H13.8009H13.7801H13.7605H13.7568H13.7312H13.7032H13.6776H13.673H13.6406H13.6061H13.6013H13.5695H13.5318H13.531H13.4906H13.4696H13.4483H13.4149H13.4043H13.3678H13.3587H13.3286H13.3114H13.2978H13.2753H13.2626H13.2617H13.2571H10.7668C9.73707 23.9999 7.40302 23.0589 7.40302 20.6306C7.40302 18.2024 7.40302 7.64347 7.40302 6.19023C7.40302 4.73693 8.91633 2.79448 10.7932 2.79448C12.67 2.79448 15.5407 2.79448 16.5859 2.79448C17.5853 2.79448 18.4137 3.57031 19.3195 4.55699C20.1535 5.18841 23.9949 8.80129 23.9975 9.99023L24.0001 11.1595V20.6306C24.0001 23.0588 21.6661 23.9999 20.6364 23.9999H13.8714H13.8712ZM15.3867 12.9964C16.2234 12.8011 16.4627 13.0837 16.8375 13.1839C17.7683 11.7916 19.299 12.3224 19.0592 13.4384C18.9346 14.0189 18.5121 14.2955 18.1594 14.6487C17.797 15.0118 17.4689 15.3404 17.1065 15.7034C16.7954 16.015 16.4212 16.5458 15.8568 16.5623C15.3879 16.576 15.3441 16.5159 15.0738 16.3097C14.3617 15.7663 13.4549 16.8279 14.7302 17.4978C15.2431 17.7671 15.8336 17.8451 16.458 17.6319C17.1095 17.4096 17.2525 17.1979 17.6915 16.7581C18.0839 16.365 19.5478 14.9425 19.7801 14.6315C20.9313 13.0897 19.8405 10.9531 17.8253 11.1735C17.2442 11.237 16.7895 11.5659 16.4514 11.9066C16.1851 12.1749 15.5626 12.7335 15.3868 12.9965H15.34L15.3791 13.0511L15.3869 12.9965L15.3867 12.9964ZM15.8547 18.5744C15.3907 18.6131 14.9643 18.6845 14.4508 18.3401C14.247 18.645 13.7283 19.1304 13.194 19.0871C12.6768 19.0451 12.2146 18.5726 12.3624 17.889C12.4745 17.3708 13.8485 16.1544 14.2753 15.7269C14.5733 15.4284 14.9495 14.95 15.5251 14.9656C16.057 14.9799 16.5375 15.7483 17.0068 15.2286C17.1788 15.0381 17.2044 14.7259 17.0722 14.496C16.8149 14.0482 15.7319 13.6237 14.8069 13.9157C14.2356 14.0961 13.9884 14.3738 13.6202 14.7426C13.1902 15.1733 11.895 16.4224 11.6089 16.806C11.0054 17.6155 10.9766 18.8095 11.7409 19.6015C11.7476 19.6084 11.7573 19.6183 11.7642 19.6251C11.771 19.6318 11.781 19.6414 11.7879 19.6481C12.6998 20.5224 14.0557 20.4081 14.8376 19.6182C15.0945 19.3587 15.685 18.8285 15.8548 18.5746H15.9016L15.8626 18.5199L15.8548 18.5746L15.8547 18.5744Z" fill="black"/>
</svg>
