<svg width="161" height="161" viewBox="0 0 161 161" fill="none" xmlns="http://www.w3.org/2000/svg">
<g clip-path="url(#clip0_103_98)">
<path d="M160.899 102.215C160.899 101.276 160.746 100.313 160.442 99.2735L151.622 69.8172L148.522 61.173C147.251 57.2946 143.668 54.48 139.981 54.48H107.7V46.6718C107.7 41.2208 103.251 36.8097 97.8129 36.8097H86.5021C86.5536 36.0748 86.655 35.3398 86.655 34.5792C86.9092 24.1346 81.9778 14.0446 73.4118 7.60686C64.8201 1.14343 54.1448 -0.78378 44.1051 2.30832C30.3277 6.59272 21.0506 19.141 21.0506 33.5651C21.0506 34.6546 21.1262 35.7458 21.2035 36.8097H9.89271C4.42712 36.8097 0.00585938 41.2465 0.00585938 46.6718V116.968L0.0573892 137.198C0.0573892 139.935 1.20135 142.546 3.15777 144.346C4.85997 145.893 6.99502 146.729 9.15584 146.729C9.41005 146.729 9.66426 146.729 9.91848 146.703H18.8658C19.5769 151.291 22.0177 155.322 25.5251 158.061H9.89271C8.85009 158.061 7.98611 158.923 7.98611 159.963C7.98611 161.003 8.85009 161.864 9.89271 161.864H33.0485C33.3542 161.864 33.6325 161.789 33.8867 161.636C34.7507 161.763 35.6404 161.864 36.5302 161.864C45.4775 161.864 52.8737 155.272 54.1963 146.705H105.821C105.948 146.705 106.075 146.654 106.202 146.63L112.073 146.681C112.76 151.271 115.225 155.3 118.732 158.039H85.7652C84.7226 158.039 83.8586 158.901 83.8586 159.94C83.8586 160.98 84.7226 161.842 85.7652 161.842H129.739C138.559 161.842 145.88 155.428 147.354 147.038L152.132 147.089C157.012 147.089 161.004 142.957 161.004 137.886L160.903 102.218L160.899 102.215ZM147.835 70.857L155.08 94.8384H123.916C121.934 94.7373 120.383 93.1647 120.383 91.2889L120.409 74.1273C120.409 73.1885 120.764 72.3526 121.426 71.7187C122.01 71.1603 122.772 70.857 123.662 70.857H123.815H147.835ZM45.2215 5.88351C47.9921 5.02183 50.8143 4.61583 53.6089 4.61583C59.7856 4.61583 65.861 6.64412 71.0964 10.5979C78.6713 16.3024 83.0427 25.2258 82.8143 34.4525C82.3058 54.7079 65.3268 71.5663 57.1919 79.652C55.8195 81.0207 54.6756 82.1616 53.8614 83.049C53.0472 82.1616 51.905 81.0207 50.5566 79.6777C42.2191 71.3624 24.8587 54.0483 24.8587 33.4897C24.8587 20.7633 33.0433 9.66084 45.2181 5.88351H45.2215ZM3.81563 46.6222C3.81563 43.2765 6.53469 40.563 9.891 40.563H21.6845C24.9119 59.4497 40.0875 74.6344 47.865 82.3912C49.1619 83.6846 50.2543 84.7741 51.0427 85.6357C51.7796 86.4221 52.7964 86.8777 53.8648 86.8777C54.9332 86.8777 55.9483 86.4221 56.6612 85.6357C57.4496 84.7741 58.5678 83.6589 59.8887 82.3398C67.5906 74.6841 82.816 59.525 86.0194 40.563H97.8129C101.167 40.563 103.888 43.2748 103.888 46.6222V115.018H3.81735V46.6222H3.81563ZM36.5285 157.988C28.7767 157.988 22.4471 151.701 22.4471 143.944C22.4471 136.187 28.7509 129.9 36.5285 129.9C44.306 129.9 50.6099 136.187 50.6099 143.944C50.6099 151.701 44.2803 157.988 36.5285 157.988ZM54.3715 142.852C53.7875 133.549 46.034 126.121 36.5525 126.121C27.071 126.121 19.2935 133.523 18.7335 142.852H9.78622C8.2867 142.979 6.86276 142.498 5.77033 141.509C4.57484 140.42 3.91525 138.847 3.91525 137.175L3.81391 118.821H103.861L103.912 142.828L54.3715 142.854V142.852ZM129.737 157.988C121.986 157.988 115.656 151.701 115.656 143.944C115.656 136.213 121.96 129.9 129.737 129.9C137.515 129.9 143.819 136.187 143.819 143.944C143.819 151.701 137.515 157.988 129.737 157.988ZM152.156 143.233L147.606 143.181C147.199 133.701 139.37 126.095 129.763 126.095C120.282 126.095 112.53 133.497 111.946 142.801L107.777 142.75L107.701 58.2317H139.983C141.991 58.2317 144.152 60.0064 144.915 62.3379L146.593 67.0523H123.868C121.912 66.9769 120.132 67.6604 118.76 68.9795C117.362 70.3226 116.573 72.1984 116.573 74.1256L116.547 91.2872C116.547 95.217 119.699 98.4359 123.791 98.6397H156.225L156.785 100.363C156.988 101.048 157.091 101.631 157.091 102.187L157.192 137.83C157.192 140.821 154.93 143.229 152.16 143.229L152.156 143.233Z" fill="#FF6600"/>
<path d="M129.735 136.211C125.465 136.211 121.983 139.683 121.983 143.942C121.983 148.201 125.465 151.673 129.735 151.673C134.005 151.673 137.487 148.201 137.487 143.942C137.487 139.683 134.029 136.211 129.735 136.211ZM129.735 147.898C127.549 147.898 125.795 146.123 125.795 143.968C125.795 141.813 127.574 140.038 129.735 140.038C131.896 140.038 133.676 141.813 133.676 143.968C133.676 146.123 131.922 147.898 129.735 147.898Z" fill="#FF6600"/>
<path d="M36.5262 136.211C32.2561 136.211 28.7744 139.683 28.7744 143.942C28.7744 148.201 32.2561 151.673 36.5262 151.673C40.7963 151.673 44.278 148.201 44.278 143.942C44.278 139.683 40.7963 136.211 36.5262 136.211ZM36.5262 147.898C34.3396 147.898 32.5859 146.123 32.5859 143.968C32.5859 141.813 34.3654 140.038 36.5262 140.038C38.687 140.038 40.4665 141.813 40.4665 143.968C40.4665 146.123 38.7128 147.898 36.5262 147.898Z" fill="#FF6600"/>
<path d="M73.8156 157.986H64.8168C63.7741 157.986 62.9102 158.848 62.9102 159.888C62.9102 160.928 63.7741 161.789 64.8168 161.789H73.8156C74.8582 161.789 75.7222 160.928 75.7222 159.888C75.7222 158.848 74.8582 157.986 73.8156 157.986Z" fill="#FF6600"/>
<path d="M129.533 104.955H122.289C121.247 104.955 120.383 105.817 120.383 106.857C120.383 107.896 121.247 108.758 122.289 108.758H129.533C130.575 108.758 131.439 107.896 131.439 106.857C131.439 105.817 130.575 104.955 129.533 104.955Z" fill="#FF6600"/>
<path d="M72.062 34.4023C72.062 24.3894 63.9031 16.2266 53.8377 16.2266C43.7722 16.2266 35.6133 24.3637 35.6133 34.4023C35.6133 44.4409 43.7722 52.578 53.8377 52.578C63.9031 52.578 72.062 44.4409 72.062 34.4023ZM39.4505 34.4023C39.4505 26.493 45.9072 20.0279 53.8634 20.0279C61.8196 20.0279 68.2763 26.4673 68.2763 34.4023C68.2763 42.3373 61.8196 48.7767 53.8634 48.7767C45.9072 48.7767 39.4505 42.3373 39.4505 34.4023Z" fill="#FF6600"/>
</g>
<defs>
<clipPath id="clip0_103_98">
<rect width="161" height="161" fill="white"/>
</clipPath>
</defs>
</svg>
