<svg width="24" height="32" viewBox="0 0 24 32" fill="none" xmlns="http://www.w3.org/2000/svg">
<path d="M12 1.23998C10.6047 1.23998 9.25199 1.51052 8.00231 2.02664C6.75323 2.54255 5.60511 3.30489 4.61837 4.28867C4.10392 4.80159 3.64554 5.34015 3.2461 5.90033C2.84563 6.46193 2.50302 7.04603 2.22105 7.64864L2.22165 7.64891C1.9392 8.25282 1.71714 8.87537 1.55664 9.51214C1.39578 10.1504 1.29627 10.8031 1.25923 11.4658C1.2213 12.1441 1.24837 12.834 1.33984 13.5305C1.43145 14.2281 1.58778 14.9337 1.80817 15.6422C2.0365 16.3763 2.33445 17.1153 2.69946 17.8538C3.06427 18.5919 3.49685 19.3304 3.99459 20.0637C4.67179 21.0618 5.79226 22.549 6.99991 24.1064C8.92122 26.5842 11.0635 29.2405 12 30.3959C12.9366 29.2405 15.0788 26.5842 17.0002 24.1064C18.2078 22.549 19.3283 21.0618 20.0055 20.0638C20.5032 19.3304 20.9357 18.5919 21.3005 17.8538C21.6655 17.1153 21.9635 16.3763 22.1918 15.6423C22.4121 14.9337 22.5685 14.2283 22.6601 13.5307C22.7516 12.8341 22.7788 12.1442 22.741 11.4658C22.7038 10.803 22.6043 10.1502 22.4433 9.51177C22.2822 8.87288 22.0604 8.25045 21.779 7.64891H21.7783C21.4954 7.04419 21.1529 6.45996 20.7539 5.90026C20.3545 5.34008 19.8962 4.80156 19.3818 4.28865C18.3951 3.30487 17.247 2.54253 15.9979 2.02664C14.7482 1.51052 13.3954 1.23995 12 1.23995L12 1.23998ZM12 5.94874C10.3364 5.94874 8.8277 6.62353 7.73495 7.71306C6.64227 8.80254 5.96547 10.3067 5.96547 11.9656C5.96547 13.6243 6.6423 15.1285 7.73502 16.218C8.82775 17.3076 10.3364 17.9824 12 17.9824C13.6636 17.9824 15.1723 17.3076 16.265 16.218C17.3577 15.1285 18.0345 13.6243 18.0345 11.9656C18.0345 10.3067 17.3577 8.80254 16.2651 7.71306C15.1723 6.62353 13.6637 5.94874 12 5.94874H12ZM12 19.2224C9.99337 19.2224 8.1738 18.4086 6.85594 17.0946C5.53808 15.7806 4.72186 13.9663 4.72186 11.9656C4.72186 9.9648 5.53808 8.15058 6.85594 6.8366C8.17377 5.52262 9.99334 4.70876 12 4.70876C14.0067 4.70876 15.8262 5.5226 17.1441 6.83657C18.4619 8.15055 19.2781 9.9648 19.2781 11.9656C19.2781 13.9663 18.4619 15.7806 17.1441 17.0946C15.8262 18.4086 14.0067 19.2225 12 19.2225V19.2224ZM12 32C11.9071 32 11.8162 31.979 11.7336 31.9398C11.6511 31.9007 11.5773 31.8435 11.5181 31.7709C11.4755 31.7187 8.64432 28.2466 6.13094 25.0105C4.86111 23.3755 3.67266 21.8014 2.96457 20.7578C2.43489 19.9774 1.97271 19.1874 1.58086 18.3936C1.18906 17.5999 0.868201 16.8029 0.621117 16.0084C0.379452 15.2314 0.207886 14.455 0.107119 13.6846C0.00622784 12.913 -0.0235651 12.1487 0.0184647 11.3969C0.101326 9.91525 0.46476 8.48386 1.09131 7.14011C1.71771 5.79665 2.60611 4.54143 3.73904 3.41184C4.84158 2.31265 6.127 1.45979 7.52769 0.881314C8.92771 0.303109 10.441 0 12 0C13.559 0 15.0723 0.303109 16.4724 0.881314C17.8731 1.45979 19.1585 2.31265 20.2612 3.41184C21.3941 4.54146 22.2825 5.79667 22.9088 7.14013C23.5353 8.48387 23.8988 9.91527 23.9816 11.3969C24.0236 12.1486 23.9937 12.913 23.8929 13.6845C23.7921 14.4549 23.6206 15.2314 23.379 16.0084C23.1318 16.803 22.8109 17.6 22.4191 18.3938C22.053 19.1354 21.6256 19.8737 21.1391 20.604L21.1397 20.6044L20.9314 20.9114L20.9309 20.911C20.2137 21.9519 19.0784 23.4536 17.8692 25.0104C15.3557 28.2465 12.5245 31.7187 12.4819 31.7708C12.4227 31.8434 12.3489 31.9007 12.2664 31.9398C12.1837 31.979 12.0929 32 12 32L12 32Z" fill="#FF6600"/>
</svg>
