<svg width="157" height="163" viewBox="0 0 157 163" fill="none" xmlns="http://www.w3.org/2000/svg">
<g clip-path="url(#clip0_103_66)">
<path d="M76.3497 154.358C116.788 154.358 149.571 121.803 149.571 81.6438C149.571 41.4849 116.788 8.92969 76.3497 8.92969C35.911 8.92969 3.12891 41.4849 3.12891 81.6438C3.12891 121.803 35.911 154.358 76.3497 154.358Z" fill="#FF6600"/>
<path d="M8.92037 129.337C4.00152 129.337 0 133.311 0 138.196C0 143.08 4.00171 147.054 8.92037 147.054C13.839 147.054 17.8407 143.08 17.8407 138.196C17.8407 133.311 13.839 129.337 8.92037 129.337Z" fill="#FF6600"/>
<path d="M146.295 5.31543C140.393 5.31543 135.591 10.0843 135.591 15.946C135.591 21.8076 140.393 26.5765 146.295 26.5765C152.198 26.5765 157 21.8076 157 15.946C157 10.0843 152.198 5.31543 146.295 5.31543Z" fill="#FF6600"/>
<path d="M105.262 7.0869C107.232 7.0869 108.83 5.50044 108.83 3.54345C108.83 1.58646 107.232 0 105.262 0C103.291 0 101.693 1.58646 101.693 3.54345C101.693 5.50044 103.291 7.0869 105.262 7.0869Z" fill="#FF6600"/>
<path d="M26.7615 10.6299C28.7321 10.6299 30.3296 9.04341 30.3296 7.08642C30.3296 5.12943 28.7321 3.54297 26.7615 3.54297C24.7909 3.54297 23.1934 5.12943 23.1934 7.08642C23.1934 9.04341 24.7909 10.6299 26.7615 10.6299Z" fill="#FF6600"/>
<path d="M5.35233 35.4346C7.32296 35.4346 8.92047 33.8481 8.92047 31.8911C8.92047 29.9341 7.32296 28.3477 5.35233 28.3477C3.38169 28.3477 1.78418 29.9341 1.78418 31.8911C1.78418 33.8481 3.38169 35.4346 5.35233 35.4346Z" fill="#FF6600"/>
<path d="M30.3299 155.913C32.3005 155.913 33.898 154.327 33.898 152.37C33.898 150.413 32.3005 148.826 30.3299 148.826C28.3592 148.826 26.7617 150.413 26.7617 152.37C26.7617 154.327 28.3592 155.913 30.3299 155.913Z" fill="#FF6600"/>
<path d="M148.079 138.195C150.05 138.195 151.647 136.609 151.647 134.652C151.647 132.695 150.05 131.108 148.079 131.108C146.108 131.108 144.511 132.695 144.511 134.652C144.511 136.609 146.108 138.195 148.079 138.195Z" fill="#FF6600"/>
<path d="M126.671 163C128.641 163 130.239 161.414 130.239 159.457C130.239 157.5 128.641 155.913 126.671 155.913C124.7 155.913 123.103 157.5 123.103 159.457C123.103 161.414 124.7 163 126.671 163Z" fill="#FF6600"/>
<path d="M77.3536 70.7395C77.6608 70.4303 77.956 70.1119 78.2388 69.7853C81.6014 65.9029 83.1574 60.9316 82.9559 56.0307C82.7548 51.132 80.7978 46.3093 77.1354 42.7213C76.8288 42.4209 76.5093 42.1284 76.1775 41.845C72.2615 38.4988 67.249 36.9447 62.302 37.1673C57.3915 37.3882 52.5494 39.3613 48.9134 43.0709C45.4286 46.6207 43.5828 51.2053 43.3311 55.836C43.0738 60.5687 44.4769 65.345 47.4911 69.1119C47.9508 69.6871 48.4504 70.2383 48.9851 70.7635V70.7682C52.4636 74.1856 57.1525 76.1133 61.9635 76.409C66.7751 76.7048 71.699 75.3682 75.6469 72.2571C76.2426 71.7877 76.8131 71.2816 77.3536 70.7395ZM80.107 71.3728C79.7888 71.7406 79.4549 72.1005 79.1064 72.4514L79.1017 72.4561C78.4837 73.0765 77.8412 73.6475 77.1783 74.1698C72.7332 77.6728 67.2073 79.1793 61.8193 78.8479C56.4318 78.5166 51.1707 76.3478 47.2541 72.5014L47.2515 72.504C46.6649 71.9277 46.1011 71.3035 45.565 70.6325C42.1683 66.3878 40.5865 61.0203 40.8753 55.7116C41.1581 50.5104 43.2329 45.3594 47.1508 41.3684C51.2407 37.1957 56.6817 34.9764 62.1959 34.7285C67.7446 34.4789 73.3725 36.2268 77.7761 39.9896C78.1498 40.3089 78.5114 40.64 78.8593 40.9808C82.983 45.0209 85.1861 50.4388 85.4118 55.935C85.6375 61.4288 83.888 67.008 80.107 71.373V71.3728Z" fill="white"/>
<path d="M43.9241 118.84H82.4912C85.1666 118.84 87.1581 117.764 88.531 116.111C90.2256 114.071 91.0402 111.155 91.0786 108.235C91.1355 104.001 90.3018 99.7067 88.6149 95.7914C87.0168 92.0823 84.6532 88.7198 81.5568 86.0817L81.4846 86.0196L81.4855 86.0184C75.7634 81.0304 68.5434 78.8009 61.489 79.2331C54.4161 79.6661 47.5113 82.7785 42.453 88.4708L42.4048 88.5282L42.4034 88.5271C39.6751 91.6155 37.9592 95.0411 36.9229 98.6953C35.8696 102.41 35.5151 106.383 35.5151 110.49C35.5151 112.795 36.457 114.882 37.979 116.394C39.5008 117.905 41.6034 118.84 43.9241 118.84ZM82.4912 121.289H43.9241C40.923 121.289 38.2042 120.079 36.236 118.125C34.2677 116.17 33.0498 113.47 33.0498 110.49C33.0498 106.19 33.4284 102.004 34.554 98.0354C35.6905 94.028 37.5856 90.2627 40.6135 86.8549L40.6617 86.7975L40.6637 86.7991C46.1679 80.6354 53.6652 77.2645 61.3447 76.7944C69.0363 76.3233 76.9136 78.7657 83.1546 84.2277L83.1555 84.2266C86.5505 87.1191 89.1363 90.7923 90.8782 94.8351C92.697 99.0567 93.5959 103.691 93.5344 108.264C93.4895 111.699 92.4965 115.171 90.4284 117.661C88.6031 119.858 85.9824 121.289 82.4912 121.289V121.289Z" fill="white"/>
<path d="M82.0921 73.3893C81.5311 73.0117 81.3845 72.2537 81.7646 71.6965C82.1449 71.1393 82.9082 70.9938 83.4692 71.3712C83.7245 71.5435 84.3196 71.8583 84.9739 72.1876C86.0473 72.7279 87.193 73.2643 87.3552 73.3246L87.3985 73.3389C89.4161 74.1706 91.5075 74.5573 93.5782 74.5602C97.2351 74.5654 100.846 73.387 103.899 71.3617C106.952 69.3364 109.44 66.4678 110.851 63.0938C111.659 61.1595 112.114 59.0625 112.117 56.8684C112.122 53.0237 110.89 49.5924 108.86 46.7964C107.129 44.4116 104.818 42.4849 102.197 41.1531C99.575 39.8206 96.6464 39.0843 93.6832 39.0805C90.1932 39.0763 86.6498 40.0903 83.4983 42.3465C82.948 42.7399 82.1803 42.6156 81.7841 42.0691C81.388 41.5226 81.5131 40.7603 82.0634 40.3668C85.6579 37.7933 89.7007 36.6367 93.6832 36.6416C97.0405 36.6458 100.353 37.4773 103.314 38.9821C106.277 40.4876 108.892 42.6689 110.854 45.3713C113.172 48.564 114.579 52.4808 114.573 56.868C114.57 59.4051 114.049 61.8167 113.124 64.0306C111.524 67.8563 108.713 71.1029 105.267 73.3888C101.821 75.6745 97.7325 77.0046 93.5786 76.9985C91.1842 76.9951 88.7729 76.551 86.4552 75.5954L86.4561 75.5928C86.1479 75.4671 84.9325 74.904 83.8668 74.3675C83.1491 74.0062 82.465 73.6398 82.0925 73.3884L82.0921 73.3893Z" fill="white"/>
<path d="M93.5608 119.373C92.8801 119.373 92.3282 118.825 92.3282 118.149C92.3282 117.473 92.8801 116.925 93.5608 116.925H109.489C111.81 116.925 113.912 115.99 115.434 114.478C116.956 112.967 117.898 110.879 117.898 108.574C117.898 107.975 117.903 107.954 117.908 106.83C117.934 100.809 117.96 94.9879 115.025 89.6245C113.727 87.2562 112.014 85.1233 109.995 83.3198C107.977 81.5163 105.656 80.0482 103.146 79.0093C101.706 78.4272 100.211 77.9853 98.6899 77.6895C97.1697 77.3938 95.6177 77.2434 94.0622 77.2434C91.925 77.2434 89.8145 77.5318 87.7858 78.0877C85.7367 78.6494 83.7572 79.4858 81.9034 80.5757C81.3184 80.9188 80.5638 80.7263 80.2181 80.1453C79.8726 79.5643 80.0664 78.815 80.6515 78.4717C82.6853 77.2759 84.8658 76.3559 87.1307 75.735C89.3896 75.1159 91.7206 74.7949 94.0622 74.7949C95.7683 74.7949 97.4785 74.9614 99.162 75.2889C100.839 75.6152 102.485 76.1018 104.07 76.7433L104.08 76.748C106.855 77.895 109.417 79.5143 111.642 81.5024C113.858 83.4823 115.745 85.8351 117.182 88.4576C120.418 94.3717 120.392 100.501 120.364 106.839L120.363 108.574C120.363 111.555 119.145 114.255 117.177 116.209C115.209 118.164 112.49 119.373 109.489 119.373H93.5608Z" fill="white"/>
</g>
<defs>
<clipPath id="clip0_103_66">
<rect width="157" height="163" fill="white"/>
</clipPath>
</defs>
</svg>
