<svg width="24" height="24" viewBox="0 0 24 24" fill="none" xmlns="http://www.w3.org/2000/svg">
<path d="M3.89738 3.9473C3.56114 4.09495 3.25619 4.31108 3.00562 4.58552L2.30253 5.35711C2.2647 5.39855 2.22798 5.44157 2.19267 5.48577C2.15787 5.52932 2.12376 5.57508 2.0906 5.62258C2.08407 5.63194 2.07647 5.64199 2.06791 5.65273C2.05994 5.66271 2.05182 5.67226 2.0436 5.6814L2.04319 5.68222L2.01091 5.71727C2.0034 5.72553 1.99465 5.7345 1.98477 5.744C1.97558 5.75285 1.96646 5.76109 1.95753 5.76858C1.70435 5.98345 1.41468 6.43963 1.26459 7.07804C1.14962 7.56716 1.11812 8.16081 1.24928 8.83201C1.98101 12.6092 3.95189 15.9366 6.70592 18.4056C9.46016 20.8746 12.9976 22.4853 16.8622 22.8288H16.8626C17.3179 22.8699 17.7613 22.8463 18.1732 22.7624C18.5826 22.6789 18.961 22.5354 19.2887 22.3359L19.2911 22.3347C19.4197 22.2609 19.5386 22.1803 19.6484 22.0929C19.7577 22.0058 19.8585 21.9114 19.9512 21.8095H19.9516L20.6556 21.0379C21.1462 20.5001 21.3704 19.8142 21.3364 19.141C21.3023 18.4683 21.01 17.8084 20.4676 17.3221L19.2799 16.2573C19.0353 16.0382 18.7549 15.8682 18.4532 15.7529C18.1525 15.638 17.8301 15.5777 17.5006 15.5777C17.1253 15.5777 16.7584 15.6565 16.423 15.804C16.0872 15.9517 15.7822 16.1683 15.5309 16.4437L14.8272 17.2149C14.7043 17.3493 14.5968 17.4944 14.5054 17.6489C14.4139 17.8035 14.3385 17.9677 14.2798 18.1403L14.2172 18.3255C14.1917 18.4007 14.1516 18.4688 14.0999 18.5262C14.0483 18.5835 13.9847 18.6308 13.912 18.6645L13.9116 18.6649C13.8395 18.6978 13.7618 18.7157 13.6833 18.7182C13.6052 18.7206 13.527 18.7076 13.4536 18.6789L13.4536 18.6787L13.2689 18.6067H13.2685C11.6321 17.9663 10.1469 17.0394 8.87452 15.8821C7.6022 14.7248 6.54294 13.3373 5.75821 11.7756V11.7751L5.65871 11.5765C5.62085 11.501 5.6008 11.4187 5.5986 11.3356C5.59643 11.2525 5.61212 11.1692 5.64577 11.0918L5.64619 11.0914C5.68037 11.0134 5.73079 10.9451 5.793 10.8903C5.8555 10.8352 5.93008 10.7935 6.01227 10.7689L6.22625 10.7053C6.45623 10.6367 6.67506 10.5372 6.87708 10.4102C7.07985 10.2829 7.265 10.1287 7.4269 9.95121L7.45815 9.91694H7.4585L8.13075 9.18054C8.36828 8.92023 8.54774 8.62148 8.66335 8.29995C8.77899 7.97837 8.83068 7.6342 8.81276 7.2831C8.7951 6.93246 8.70898 6.59551 8.56153 6.28719C8.41408 5.97892 8.20545 5.69948 7.94268 5.46384L6.75519 4.40019C6.51086 4.18108 6.23058 4.01116 5.92901 3.89597C5.62824 3.7811 5.30561 3.7209 4.97567 3.7209C4.60047 3.7209 4.23339 3.79971 3.89743 3.94723L3.89738 3.9473ZM18.9217 11.7458C18.9963 11.8196 19.0993 11.8653 19.2132 11.8653C19.3265 11.8653 19.4293 11.8196 19.5038 11.7458C19.5783 11.6719 19.6244 11.57 19.6244 11.4577C19.6244 9.49463 18.8188 7.71456 17.5179 6.42528C16.217 5.13598 14.421 4.33745 12.4404 4.33745C12.3271 4.33745 12.2243 4.38315 12.1499 4.45693C12.0754 4.5307 12.0293 4.63254 12.0293 4.74477C12.0293 4.85764 12.0754 4.95976 12.1498 5.03359C12.224 5.10724 12.3268 5.15285 12.4404 5.15285C14.1942 5.15285 15.7844 5.85992 16.9362 7.00153C18.088 8.14317 18.8014 9.71942 18.8014 11.4577C18.8014 11.5703 18.8474 11.6722 18.9217 11.7458V11.7458ZM11.6655 3.97677C11.864 3.78003 12.1381 3.65813 12.4404 3.65813C14.6099 3.65813 16.5773 4.53286 18.0023 5.94516C19.4272 7.3574 20.3097 9.30729 20.3097 11.4577C20.3097 11.7574 20.1868 12.0291 19.9882 12.2259C19.7897 12.4226 19.5155 12.5445 19.2132 12.5445C18.9109 12.5445 18.6368 12.4226 18.4381 12.2259C18.2392 12.0288 18.116 11.7571 18.116 11.4577C18.116 9.90664 17.4795 8.50025 16.4518 7.48164C15.4241 6.46299 14.0052 5.83212 12.4404 5.83212C12.1383 5.83212 11.8641 5.71005 11.6654 5.51292C11.4669 5.31607 11.3439 5.04437 11.3439 4.74475C11.3439 4.4452 11.4669 4.17349 11.6654 3.97675L11.6655 3.97677ZM22.6126 11.6252C22.687 11.699 22.7901 11.7447 22.9039 11.7447C23.0173 11.7447 23.12 11.6991 23.1941 11.6256C23.2685 11.5518 23.3147 11.4498 23.3147 11.3373C23.3147 8.3988 22.1088 5.73426 20.1618 3.80441C18.2149 1.87452 15.5267 0.679248 12.5623 0.679248C12.4485 0.679248 12.3456 0.724931 12.2713 0.798631C12.1967 0.872598 12.1505 0.974823 12.1505 1.08759C12.1505 1.20014 12.1966 1.30195 12.2708 1.37548C12.3454 1.44926 12.4485 1.49494 12.5623 1.49494C15.3 1.49494 17.7825 2.59875 19.5805 4.3809C21.3786 6.16308 22.4922 8.62371 22.4922 11.3373C22.4922 11.4498 22.5382 11.5516 22.6126 11.6252H22.6126ZM20.6462 3.32438C22.7172 5.37725 24 8.21161 24 11.3373C24 11.6368 23.8771 11.9085 23.6785 12.1053L23.6783 12.1051C23.4797 12.3019 23.2057 12.4239 22.9039 12.4239C22.6017 12.4239 22.3275 12.302 22.1289 12.1053C21.93 11.9083 21.8068 11.6366 21.8068 11.3373C21.8068 8.81107 20.77 6.52029 19.096 4.86105C17.4221 3.20187 15.111 2.17421 12.5622 2.17421C12.26 2.17421 11.9859 2.05236 11.7872 1.85561C11.5884 1.65865 11.4652 1.38697 11.4652 1.08757C11.4652 0.788016 11.5883 0.516216 11.7869 0.319278C11.9858 0.122123 12.26 0 12.5623 0C15.7156 0 18.5751 1.27147 20.6462 3.32438ZM1.29401 4.75614C1.34169 4.697 1.39072 4.63986 1.4407 4.58511L2.14432 3.81345C2.50551 3.41764 2.94397 3.10643 3.42655 2.89437C3.90954 2.68212 4.43696 2.56874 4.97565 2.56874C5.44851 2.56874 5.91245 2.65565 6.34658 2.82147C6.77979 2.98693 7.18274 3.23129 7.53459 3.54657L8.72182 4.60995C9.10022 4.94934 9.4005 5.35122 9.61241 5.79419C9.82429 6.23717 9.94799 6.72164 9.97328 7.22617C9.99888 7.73063 9.92467 8.22501 9.75856 8.68682C9.59245 9.1486 9.33428 9.5782 8.99209 9.9531L8.28847 10.7235C8.09502 10.9355 7.87918 11.1241 7.64551 11.2864C7.44231 11.4274 7.22622 11.5484 7.00028 11.6474C7.69975 12.9309 8.60486 14.0765 9.67273 15.0452C10.7435 16.0165 11.9781 16.8104 13.3333 17.3875C13.4065 17.231 13.4904 17.0799 13.5846 16.9349C13.6966 16.7623 13.8239 16.5979 13.9659 16.4423L14.6695 15.6714C15.0306 15.2757 15.4693 14.9643 15.9522 14.7518C16.4358 14.5391 16.963 14.4255 17.5006 14.4255C17.9731 14.4255 18.437 14.5124 18.8711 14.6783C19.3042 14.8438 19.7072 15.0882 20.0591 15.4036L21.2468 16.4682C22.0271 17.1676 22.4476 18.1165 22.4966 19.0838C22.5456 20.0507 22.2231 21.0364 21.5175 21.8098L20.8136 22.5812L20.8138 22.5814C20.6812 22.7272 20.5364 22.8628 20.3806 22.9874C20.2259 23.1111 20.0607 23.2235 19.8862 23.3236L19.8863 23.3238C19.5247 23.5441 19.1169 23.7131 18.6791 23.827C18.2411 23.9411 17.7739 24 17.294 24C17.2096 24 17.1204 23.9979 17.0264 23.9937C16.9385 23.9897 16.8492 23.9837 16.7585 23.9755C12.6369 23.6091 8.86438 21.8915 5.92739 19.2586C2.99017 16.6256 0.888265 13.0772 0.108079 9.04938C-0.0614753 8.18136 -0.0198814 7.38797 0.15185 6.71642C0.352826 5.93057 0.733065 5.30926 1.16326 4.92763C1.20326 4.87177 1.24696 4.81445 1.29406 4.75607L1.29401 4.75614Z" fill="#FF6600"/>
</svg>
