<svg width="111" height="149" viewBox="0 0 111 149" fill="none" xmlns="http://www.w3.org/2000/svg">
<g clip-path="url(#clip0_103_92)">
<path d="M12.0612 0H98.9406C102.259 0 105.275 1.3577 107.46 3.54489C109.645 5.73208 111.002 8.75064 111.002 12.0723V136.928C111.002 140.25 109.645 143.269 107.46 145.456C105.275 147.643 102.259 149.001 98.9406 149.001H12.0612C8.74257 149.001 5.7268 147.643 3.54162 145.456C1.35645 143.269 0 140.25 0 136.928V12.0723C0 8.75064 1.35645 5.73208 3.54162 3.54489C5.7268 1.3577 8.74257 0 12.0612 0ZM15.2758 108.874C14.2817 108.874 13.4753 108.067 13.4753 107.072C13.4753 106.077 14.2817 105.27 15.2758 105.27H52.5855C53.5796 105.27 54.386 106.077 54.386 107.072C54.386 108.067 53.5796 108.874 52.5855 108.874H15.2758ZM15.2758 87.1251C14.2817 87.1251 13.4753 86.3179 13.4753 85.3229C13.4753 84.3278 14.2817 83.5207 15.2758 83.5207H62.8833C63.8774 83.5207 64.6839 84.3278 64.6839 85.3229C64.6839 86.3179 63.8774 87.1251 62.8833 87.1251H15.2758ZM15.2758 65.3759C14.2817 65.3759 13.4753 64.5687 13.4753 63.5737C13.4753 62.5787 14.2817 61.7715 15.2758 61.7715H74.9483C75.9424 61.7715 76.7488 62.5787 76.7488 63.5737C76.7488 64.5687 75.9424 65.3759 74.9483 65.3759H15.2758ZM15.2758 43.6267C14.2817 43.6267 13.4753 42.8195 13.4753 41.8245C13.4753 40.8295 14.2817 40.0223 15.2758 40.0223H93.9998C94.9939 40.0223 95.8004 40.8295 95.8004 41.8245C95.8004 42.8195 94.9939 43.6267 93.9998 43.6267H15.2758ZM98.9388 3.60441H12.0594C9.73482 3.60441 7.62025 4.55851 6.08542 6.0929C4.5506 7.62914 3.59923 9.74566 3.59923 12.0723V136.928C3.59923 139.255 4.55245 141.372 6.08542 142.908C7.62025 144.444 9.73482 145.396 12.0594 145.396H98.9388C101.263 145.396 103.378 144.442 104.913 142.908C106.448 141.372 107.399 139.255 107.399 136.928V12.0723C107.399 9.74566 106.446 7.62914 104.913 6.0929C103.378 4.55665 101.263 3.60441 98.9388 3.60441Z" fill="#FF6600"/>
</g>
<defs>
<clipPath id="clip0_103_92">
<rect width="111" height="149" fill="white"/>
</clipPath>
</defs>
</svg>
