<svg width="24" height="18" viewBox="0 0 24 18" fill="none" xmlns="http://www.w3.org/2000/svg">
<path d="M2.96676 16.7765C2.69794 16.7765 2.44302 16.7143 2.21405 16.6034L9.6199 9.85854L10.6208 10.77C11.014 11.128 11.5069 11.3073 12 11.3073C12.493 11.3073 12.9861 11.128 13.3793 10.77L14.3802 9.85854L21.786 16.6034C21.557 16.7143 21.3021 16.7765 21.0333 16.7765H2.96679H2.96676ZM1.33737 15.6846C1.23435 15.4498 1.17648 15.1893 1.17648 14.9148V3.08504C1.17648 2.81066 1.23437 2.54972 1.33737 2.31514L8.67708 9.00028L1.33737 15.6846ZM21.0333 1.22364C21.302 1.22364 21.557 1.28565 21.786 1.39624L12.5608 9.79851C12.2411 10.0897 11.759 10.0897 11.4392 9.79851L2.21405 1.39624C2.44309 1.28567 2.69798 1.22364 2.96676 1.22364H21.0333ZM22.8236 3.08504V14.9148C22.8236 15.1893 22.7657 15.4498 22.6627 15.6846L15.323 9.00028L22.6627 2.31514C22.7657 2.54975 22.8236 2.81066 22.8236 3.08504ZM21.0333 0H2.96676C1.33088 0 0 1.38408 0 3.08504V14.9148C0 16.616 1.33088 18 2.96676 18H21.0333C22.6691 18 24 16.616 24 14.9148V3.08504C24 1.38408 22.6691 0 21.0333 0Z" fill="#FF6600"/>
</svg>
