<svg width="157" height="165" viewBox="0 0 157 165" fill="none" xmlns="http://www.w3.org/2000/svg">
<path d="M75.9179 155.466C116.128 155.466 148.724 122.869 148.724 82.6596C148.724 42.4499 116.128 9.85352 75.9179 9.85352C35.7082 9.85352 3.11182 42.4499 3.11182 82.6596C3.11182 122.869 35.7082 155.466 75.9179 155.466Z" fill="#FF6600"/>
<path d="M90.8971 113.926H60.9022V118.631C60.9022 119.572 61.2817 120.422 61.8961 121.036C62.5106 121.651 63.3605 122.03 64.301 122.03H87.5346C87.9835 122.03 88.4148 121.947 88.8108 121.785C89.2026 121.625 89.5621 121.388 89.8727 121.077C90.2041 120.746 90.461 120.364 90.6344 119.95C90.8068 119.539 90.8971 119.094 90.8971 118.632V113.926V113.926ZM37.3646 89.8212C37.0607 89.8212 36.7573 89.7269 36.5029 89.5627C36.2708 89.4131 36.0766 89.2037 35.9557 88.9526L35.9524 88.9492C35.9487 88.9403 35.9256 88.8887 35.9252 88.8834C35.763 88.4894 35.7741 88.0612 35.9242 87.6922C36.0661 87.3429 36.3329 87.0442 36.695 86.874L36.6978 86.8712L39.1601 85.8636C39.5543 85.7009 39.9841 85.713 40.3544 85.8645C40.7246 86.016 41.0377 86.3067 41.2 86.7016C41.3626 87.0964 41.3505 87.5265 41.1988 87.8971C41.0469 88.2666 40.7563 88.5793 40.3617 88.7421L37.8997 89.7489H37.8367C37.7954 89.7489 37.7344 89.7626 37.6736 89.7758C37.5713 89.7984 37.4686 89.8213 37.3645 89.8213L37.3646 89.8212ZM36.7476 73.8116H34.2066C33.7859 73.8116 33.4008 73.637 33.1217 73.3579C32.8426 73.0788 32.668 72.6937 32.668 72.2732C32.668 71.8526 32.8426 71.4674 33.1217 71.1885C33.4022 70.9094 33.7871 70.7348 34.2068 70.7348H36.7478C37.1673 70.7348 37.5522 70.9096 37.8318 71.189C38.1116 71.4674 38.2861 71.8524 38.2861 72.273C38.2861 72.6937 38.1115 73.0788 37.8324 73.3577C37.5533 73.6368 37.1683 73.8115 36.7476 73.8115V73.8116ZM117.629 73.8116H115.088C114.667 73.8116 114.282 73.637 114.003 73.3579C113.724 73.0774 113.55 72.6926 113.55 72.2732C113.55 71.8538 113.724 71.4688 114.004 71.1892C114.282 70.9094 114.667 70.735 115.088 70.735H117.629C118.049 70.735 118.433 70.9096 118.713 71.1887C118.993 71.4678 119.168 71.8527 119.168 72.2734C119.168 72.6939 118.993 73.0792 118.714 73.3581C118.435 73.6372 118.05 73.8118 117.629 73.8118L117.629 73.8116ZM39.7244 58.8188C39.6259 58.8188 39.5262 58.806 39.4254 58.781C39.3269 58.7566 39.231 58.7206 39.1372 58.6739L36.7648 57.7031C36.3688 57.5405 36.078 57.2275 35.9265 56.8572C35.7751 56.4868 35.7627 56.0572 35.9252 55.663C36.0878 55.2684 36.4001 54.9776 36.7702 54.8259C37.1407 54.6738 37.5709 54.6616 37.9657 54.8243L40.3605 55.8045C40.7565 55.9671 41.0473 56.28 41.1988 56.6506C41.3502 57.0208 41.3624 57.4504 41.2 57.8448L41.1948 57.8581C41.0599 58.1507 40.8473 58.3878 40.596 58.5526C40.4317 58.6592 40.2513 58.7365 40.0649 58.7796V58.8189H39.7244V58.8188ZM48.1828 46.1493C47.9767 46.1493 47.7798 46.1139 47.5921 46.0378C47.4059 45.962 47.2323 45.8467 47.0721 45.6868L45.3287 43.9069C45.0258 43.6054 44.8745 43.2096 44.8745 42.8138C44.8745 42.4181 45.0256 42.0223 45.3282 41.72C45.6321 41.4178 46.0276 41.2664 46.4223 41.2664C46.818 41.2664 47.2138 41.4178 47.516 41.72L49.2586 43.5002C49.5606 43.8026 49.7123 44.1979 49.7123 44.5928C49.7123 44.9876 49.561 45.3832 49.2586 45.6854L49.2572 45.6868C49.1188 45.8248 48.945 45.9403 48.7601 46.0208C48.5732 46.1027 48.3727 46.1493 48.1828 46.1493ZM60.8887 37.6184C60.5879 37.6184 60.2994 37.5271 60.0516 37.3673C59.8047 37.2079 59.5974 36.9787 59.4598 36.7034L58.5053 34.3937C58.3429 33.9993 58.3552 33.5695 58.5065 33.1993C58.6581 32.829 58.9491 32.516 59.3438 32.3534C59.7386 32.1909 60.1687 32.2029 60.5393 32.3546C60.9092 32.5067 61.2215 32.7973 61.3841 33.1917L62.3281 35.4787C62.4903 35.8732 62.4782 36.3029 62.3269 36.6732C62.1754 37.0438 61.8845 37.3565 61.4896 37.5192L61.4648 37.5295L61.4417 37.5351C61.3615 37.5549 61.2709 37.5754 61.1802 37.5902C61.0798 37.607 60.9785 37.6182 60.8885 37.6182L60.8887 37.6184ZM114.471 89.8212C114.373 89.8212 114.273 89.8084 114.172 89.7834C114.08 89.7603 113.987 89.7258 113.894 89.6801L111.51 88.7051C111.113 88.5415 110.822 88.2278 110.671 87.857C110.522 87.4899 110.51 87.064 110.67 86.6715L110.676 86.6565C110.841 86.264 111.153 85.9753 111.521 85.8257C111.89 85.6759 112.318 85.6647 112.712 85.8265C113.445 86.1709 114.345 86.502 115.109 86.8073C115.506 86.9704 115.798 87.2845 115.948 87.6554C116.098 88.0243 116.109 88.4526 115.947 88.8467L115.932 88.8789C115.777 89.1664 115.565 89.4002 115.318 89.5624C115.161 89.6653 114.991 89.7396 114.812 89.7814V89.821H114.471L114.471 89.8212ZM112.111 58.8188C111.807 58.8188 111.504 58.7244 111.25 58.5603C110.997 58.3972 110.789 58.1636 110.672 57.8824C110.51 57.4861 110.522 57.0562 110.674 56.6854C110.826 56.3158 111.116 56.0031 111.511 55.8408L113.907 54.8612C114.302 54.6981 114.732 54.7104 115.102 54.8621C115.472 55.014 115.784 55.3048 115.947 55.6994C116.11 56.0943 116.097 56.5242 115.946 56.895C115.794 57.2646 115.503 57.5773 115.108 57.7395L112.71 58.7208C112.586 58.7703 112.476 58.7948 112.374 58.807C112.274 58.8188 112.192 58.8189 112.111 58.8189V58.8188ZM103.653 46.1493C103.458 46.1493 103.248 46.1095 103.049 46.0233C102.871 45.9465 102.705 45.832 102.568 45.6761C102.272 45.3748 102.124 44.9834 102.124 44.5926C102.124 44.1979 102.275 43.8019 102.579 43.4988L104.32 41.72C104.622 41.4174 105.018 41.2662 105.413 41.2662C105.809 41.2662 106.205 41.4174 106.507 41.72C106.81 42.0237 106.961 42.4192 106.961 42.8139C106.96 43.2094 106.808 43.6054 106.506 43.9076C105.992 44.4325 105.276 45.2574 104.745 45.7041C104.594 45.8334 104.429 45.9424 104.251 46.0201C104.064 46.1022 103.864 46.1493 103.653 46.1493H103.653ZM90.8745 37.6184C90.7765 37.6184 90.6649 37.6055 90.5534 37.5797C90.4491 37.5558 90.3443 37.5201 90.2509 37.4735C89.8656 37.2889 89.5816 36.9787 89.4335 36.6168C89.2843 36.2516 89.2734 35.8352 89.4351 35.4425C89.6551 34.7827 90.1254 33.8009 90.4218 33.1396C90.6047 32.7513 90.9163 32.4649 91.281 32.3158C91.646 32.1665 92.0626 32.1555 92.4553 32.3172L92.4712 32.3238C92.8598 32.5067 93.1465 32.8182 93.2954 33.1818C93.4446 33.548 93.4558 33.9645 93.2938 34.3573L92.3204 36.6301C92.2082 36.9437 92.0087 37.1839 91.7634 37.35C91.5959 37.4634 91.4087 37.5407 91.2148 37.5824V37.6186H90.8743L90.8745 37.6184ZM75.918 34.6052C75.4987 34.6052 75.1141 34.4304 74.8347 34.1515L74.8333 34.1501C74.554 33.8705 74.3796 33.4857 74.3796 33.0666V30.5982C74.3796 30.1775 74.554 29.7924 74.8331 29.5133C75.1136 29.2342 75.4982 29.0596 75.9178 29.0596C76.3383 29.0596 76.7234 29.2342 77.0025 29.5133C77.2816 29.7938 77.4563 30.1786 77.4563 30.5982V33.1027C77.4563 33.5228 77.2822 33.8971 77.0036 34.1673C76.7234 34.4392 76.3374 34.6051 75.918 34.6051V34.6052ZM75.9178 136.288C72.4296 136.288 69.2677 134.871 66.9782 132.581C65.0057 130.608 63.68 127.988 63.351 125.069C61.9463 124.857 60.6899 124.196 59.7314 123.238C58.5534 122.06 57.8257 120.432 57.8257 118.632V112.716C57.8021 112.61 57.7895 112.5 57.7895 112.388C57.7895 112.275 57.8021 112.166 57.8257 112.06V108.83C57.8257 106.99 57.4187 105.166 56.6575 103.482C55.8967 101.797 54.7815 100.248 53.3659 98.9554C49.7921 95.7665 46.9781 91.8712 45.057 87.5725C43.1345 83.2702 42.1064 78.5655 42.1064 73.7618C42.1064 69.0658 43.0431 64.5342 44.8335 60.3689C46.6204 56.2121 49.26 52.4193 52.6693 49.1932C56.0804 45.9655 60.0128 43.5359 64.2644 41.9781C68.5182 40.4195 73.0931 39.7318 77.7866 39.9884C86.5269 40.4463 94.3976 44.2733 100.145 50.1654C105.899 56.0649 109.525 64.0363 109.764 72.7712C109.929 77.8311 108.958 82.7719 106.988 87.2817C105.016 91.795 102.045 95.876 98.2134 99.2127C96.9049 100.361 95.8709 101.786 95.1645 103.38C94.4613 104.967 94.083 106.723 94.083 108.54V118.632C94.083 119.511 93.9106 120.363 93.5802 121.153C93.2493 121.944 92.7617 122.671 92.1317 123.301L92.1198 123.312C91.4834 123.891 90.758 124.353 89.984 124.668C89.4995 124.865 88.9957 125.004 88.4829 125.08C88.15 127.985 86.8225 130.603 84.8485 132.577C82.5598 134.866 79.4015 136.289 75.9176 136.289L75.9178 136.288ZM66.4661 125.144C66.7891 127.179 67.7574 129.007 69.1567 130.407C70.8868 132.137 73.2758 133.211 75.918 133.211C78.5513 133.211 80.9475 132.138 82.6835 130.402C84.0789 129.007 85.0476 127.183 85.3705 125.144H66.4662H66.4661ZM75.8818 43.0636C71.9367 43.0636 68.11 43.8056 64.5498 45.2224C60.976 46.6445 57.6661 48.7479 54.77 51.4641C51.6824 54.39 49.2857 57.8373 47.6609 61.6165C46.0365 65.3945 45.1837 69.5061 45.1837 73.7616C45.1837 78.1401 46.1154 82.4097 47.8577 86.3104C49.6038 90.2193 52.1638 93.7598 55.4153 96.6701L55.4167 96.6713C57.1576 98.2456 58.5284 100.143 59.4633 102.215C60.401 104.293 60.9025 106.548 60.9025 108.83V110.849L90.8974 110.85V108.539C90.8974 106.28 91.3702 104.093 92.2554 102.107C93.1417 100.119 94.4427 98.3345 96.0966 96.885C99.5766 93.8522 102.268 90.1498 104.053 86.0589C105.843 81.9579 106.725 77.4645 106.581 72.8632C106.366 64.93 103.072 57.6962 97.8533 52.3417C92.6336 46.9862 85.4877 43.5112 77.5709 43.0983H77.5656C77.2893 43.0799 77.0067 43.0708 76.7297 43.0664C76.5275 43.0635 76.1941 43.0633 75.8821 43.0633L75.8818 43.0636Z" fill="#FFFFFE"/>
<path d="M8.86996 130.413C3.97907 130.413 0 134.392 0 139.283C0 144.174 3.97907 148.153 8.86996 148.153C13.7607 148.153 17.7399 144.174 17.7399 139.283C17.7399 134.392 13.7609 130.413 8.86996 130.413Z" fill="#FF6600"/>
<path d="M145.467 6.23535C139.598 6.23535 134.823 11.0102 134.823 16.8793C134.823 22.7483 139.598 27.5232 145.467 27.5232C151.336 27.5232 156.111 22.7483 156.111 16.8793C156.111 11.0102 151.336 6.23535 145.467 6.23535Z" fill="#FF6600"/>
<path d="M104.665 8.00891C106.625 8.00891 108.213 6.42046 108.213 4.461C108.213 2.50154 106.625 0.913086 104.665 0.913086C102.706 0.913086 101.117 2.50154 101.117 4.461C101.117 6.42046 102.706 8.00891 104.665 8.00891Z" fill="#FF6600"/>
<path d="M26.6099 11.5568C28.5694 11.5568 30.1578 9.96831 30.1578 8.00885C30.1578 6.04939 28.5694 4.46094 26.6099 4.46094C24.6505 4.46094 23.062 6.04939 23.062 8.00885C23.062 9.96831 24.6505 11.5568 26.6099 11.5568Z" fill="#FF6600"/>
<path d="M5.32184 36.3927C7.2813 36.3927 8.86975 34.8042 8.86975 32.8448C8.86975 30.8853 7.2813 29.2969 5.32184 29.2969C3.36238 29.2969 1.77393 30.8853 1.77393 32.8448C1.77393 34.8042 3.36238 36.3927 5.32184 36.3927Z" fill="#FF6600"/>
<path d="M30.1578 157.024C32.1172 157.024 33.7057 155.435 33.7057 153.476C33.7057 151.516 32.1172 149.928 30.1578 149.928C28.1983 149.928 26.6099 151.516 26.6099 153.476C26.6099 155.435 28.1983 157.024 30.1578 157.024Z" fill="#FF6600"/>
<path d="M147.24 139.283C149.2 139.283 150.788 137.695 150.788 135.735C150.788 133.776 149.2 132.188 147.24 132.188C145.281 132.188 143.692 133.776 143.692 135.735C143.692 137.695 145.281 139.283 147.24 139.283Z" fill="#FF6600"/>
<path d="M125.953 164.119C127.912 164.119 129.501 162.531 129.501 160.571C129.501 158.612 127.912 157.023 125.953 157.023C123.993 157.023 122.405 158.612 122.405 160.571C122.405 162.531 123.993 164.119 125.953 164.119Z" fill="#FF6600"/>
</svg>
