<svg width="159" height="71" viewBox="0 0 159 71" fill="none" xmlns="http://www.w3.org/2000/svg">
<path d="M40.3235 38.9516C39.4858 39.7668 38.2313 40.3 37.0565 40.3C34.0572 40.3 31.9527 37.9913 31.9527 35.0369C31.9527 32.2214 34.2043 29.8003 37.0565 29.8003C38.7176 29.8003 40.3337 30.7973 41.1735 32.2214L43.8766 30.356C42.4525 27.9655 39.8148 26.5762 37.0586 26.5762C32.2939 26.5762 28.4937 30.2396 28.4937 35.0369C28.4937 39.8485 32.2694 43.5241 37.0586 43.5241C39.5226 43.5241 41.954 42.1654 43.6191 40.4124V33.8294H36.0513V36.8839H40.3256V38.9536L40.3235 38.9516Z" fill="white"/>
<path d="M45.9932 26.9375V43.1602H56.0864V39.9238H49.4563V26.9375H45.9932Z" fill="white"/>
<path d="M63.9424 40.3094C61.0473 40.3094 58.808 37.9311 58.808 35.0687C58.808 32.196 61.0248 29.8096 63.9424 29.8096C66.8621 29.8096 69.0769 32.196 69.0769 35.0687C69.0769 37.9414 66.8376 40.3094 63.9424 40.3094ZM72.5421 35.0687C72.5421 30.3306 68.6621 26.5732 63.9424 26.5732C59.235 26.5732 55.3428 30.3429 55.3428 35.0687C55.3428 39.8211 59.235 43.5212 63.9424 43.5212C68.6499 43.5212 72.5421 39.8231 72.5421 35.0687Z" fill="white"/>
<path d="M77.9133 36.2133H80.8555C81.875 36.2133 82.6963 37.051 82.6963 38.0706C82.6963 39.0431 81.9506 39.9012 80.9556 39.9114C79.9401 39.9237 78.9328 39.9237 77.9133 39.9237V36.2133ZM77.9133 32.9892V30.1738H80.6164C81.3765 30.1738 81.9404 30.8419 81.9404 31.5754C81.9404 32.2782 81.3765 32.9892 80.6389 32.9892H77.9133ZM83.9447 34.3725C84.8376 33.7166 85.4035 32.6848 85.4035 31.5774C85.4035 29.1338 83.2173 26.9395 80.7737 26.9395H74.5176V43.1601H81.023C83.8609 43.1601 86.1697 40.933 86.1697 38.0706C86.1697 36.4646 85.332 35.1509 83.9427 34.3704L83.9447 34.3725Z" fill="white"/>
<path d="M92.9103 26.9375L86.2148 43.1581H89.9375L91.3616 39.7522H97.5584L98.9764 43.1581H102.707L96.0118 26.9375H92.9103ZM94.4631 31.7226L96.5205 36.9939H92.3893L94.4631 31.7226Z" fill="white"/>
<path d="M103.961 26.9375V43.1602H114.055V39.9238H107.425V26.9375H103.961Z" fill="white"/>
<path d="M115.297 26.9375V43.1602H124.46V41.3377H117.109V26.9375H115.297Z" fill="#FF6600"/>
<path d="M125.705 43.1602H127.527V26.9375H125.705V43.1602Z" fill="#FF6600"/>
<path d="M130.093 26.9375V43.1602H131.906V30.2392L141.882 43.1602H143.523V26.9375H141.713V39.8584L131.724 26.9375H130.093Z" fill="#FF6600"/>
<path d="M146.01 26.9375V43.1602H147.787V35.4105H149.021L156.567 43.1602H159L150.56 34.4829L158.103 26.9375H155.629L149.03 33.588H147.787V26.9375H146.01Z" fill="#FF6600"/>
<path fill-rule="evenodd" clip-rule="evenodd" d="M27.2144 56.0238C29.1227 65.173 45.4843 63.4118 43.9131 53.2451C42.4523 43.7812 25.0711 45.7467 27.2144 56.0238ZM15.3723 7.14534C17.0048 7.94625 19.3462 6.91446 20.7049 6.21774C22.2557 5.42296 23.7594 4.36256 23.7635 2.21929C20.7437 1.98841 14.5509 4.71398 15.3702 7.14534H15.3723ZM5.74085 16.0801C4.36581 16.6072 3.51994 18.493 2.73741 20.1602C2.24297 21.2125 0.588011 25.5092 3.23798 24.5346C6.10657 23.4783 8.55223 15.0033 5.74085 16.0801ZM1.98349 46.0879C1.41753 49.2773 5.66321 57.9239 7.78605 55.7724C9.25508 54.285 5.92269 44.9049 1.98349 46.0879ZM0.105826 37.2962C1.22956 44.3635 6.25981 41.4315 5.40373 34.1681C5.17081 32.2006 3.64661 28.9744 1.64024 30.4659C0.265192 31.4875 -0.24151 35.11 0.105826 37.2962ZM32.2917 0.351843C24.8362 2.395 31.8462 6.64272 37.4077 5.21864C39.316 4.73033 41.8781 2.70556 39.5142 1.00565C37.8817 -0.169161 34.3491 -0.212067 32.2937 0.351843H32.2917ZM16.3693 65.788C17.2581 66.4336 18.0018 66.877 19.2073 67.4715C33.4358 74.4857 24.3356 60.0896 14.6449 62.57C14.3364 64.6908 15.1945 64.936 16.3693 65.788ZM42.3726 68.2439C42.203 65.2241 39.7471 64.4518 36.5373 64.3088C33.8383 64.1882 29.9502 64.9585 29.3168 66.9383C27.9561 71.1901 38.8543 72.2709 42.3726 68.2459V68.2439ZM62.5222 21.0408L67.4237 21.047C64.2221 12.5658 53.138 2.07627 41.921 0.834028C42.1662 1.04447 42.1846 1.07716 42.6361 1.33256C47.6112 4.14598 47.7216 3.05902 54.2065 8.87385C56.3886 10.8312 61.2779 16.975 62.5242 21.0408H62.5222ZM42.2561 70.665C52.0633 69.7987 65.6421 58.1875 67.342 50.5604L62.6652 50.6012C58.8854 57.9586 55.2772 62.5476 48.8657 66.9587C46.557 68.5483 43.2246 69.7844 42.2561 70.663V70.665ZM16.2325 11.7588C13.9666 12.5413 11.4576 14.9665 11.0388 17.6941C10.4748 21.3534 13.3169 23.5417 16.8883 22.5262C24.0536 20.4912 24.1333 9.02708 16.2325 11.7588ZM10.6465 52.9039C11.5107 60.4799 24.8873 64.1371 23.8269 54.6262C22.9054 46.3433 9.63102 44.012 10.6465 52.9039ZM32.6594 9.75445C23.2854 12.7579 28.3688 24.8084 37.4813 21.9378C46.4221 19.1203 41.9251 6.78778 32.6594 9.75445ZM22.1392 37.2962C24.2294 27.9774 11.7436 24.2935 9.58402 33.5899C7.37742 43.0988 19.9939 46.85 22.1392 37.2962Z" fill="#FF6600"/>
</svg>
