<svg width="171" height="166" viewBox="0 0 171 166" fill="none" xmlns="http://www.w3.org/2000/svg">
<g clip-path="url(#clip0_103_95)">
<path fill-rule="evenodd" clip-rule="evenodd" d="M158.649 106.683L146.271 77.4914L141.512 79.4986L153.891 108.69L158.649 106.683ZM148.696 106.93C145.876 108.256 144.916 109.77 144.064 111.133C143.311 112.342 142.586 113.491 139.891 114.819L115.591 93.5189C115.577 93.5091 115.563 93.4985 115.55 93.4887C115.522 93.4648 115.495 93.4444 115.464 93.4239C115.437 93.4 115.41 93.3795 115.379 93.3591C115.365 93.352 115.351 93.3423 115.338 93.3352C115.324 93.3218 115.31 93.3112 115.284 93.3014C115.27 93.2908 115.243 93.281 115.229 93.2703C112.494 91.5721 110.345 92.3329 109.299 92.9472C106.843 94.3942 105.685 97.6727 105.851 100.023C105.978 101.915 104.693 104.29 102.738 105.795C101.913 106.416 101.062 106.838 100.224 107.039C101.021 104.31 100.629 101.719 100.292 99.5246C99.7468 95.907 99.3854 93.5189 102.945 90.8317C103.81 90.1765 104.703 89.3944 105.653 88.5661C107.411 87.0303 109.392 85.2912 112.101 83.5219C114.724 82.2516 118.144 83.0603 122.108 83.9942C126.911 85.1288 132.801 86.5181 139.136 84.3715L148.694 106.931L148.696 106.93ZM138.859 119.333L113.026 96.6917C112.008 96.0836 111.562 96.3517 111.378 96.4538C110.471 96.99 109.855 98.6617 109.927 99.7456C110.151 103.017 108.308 106.659 105.222 109.02C103.311 110.491 101.175 111.252 99.1076 111.252C98.2157 111.252 97.3362 111.112 96.4986 110.827C95.8986 110.627 95.4259 110.162 95.2141 109.57C95.0067 108.979 95.0877 108.324 95.4224 107.798C97.0407 105.3 96.6793 102.906 96.26 100.134C95.6877 96.3935 94.9898 91.7363 100.473 87.5816C100.667 87.4325 100.865 87.2691 101.073 87.1022C100.974 87.1093 100.866 87.1191 100.739 87.1298C98.1845 87.3402 94.4308 87.6491 89.907 84.7586L76.8715 106.282C78.7008 106.73 79.9853 107.325 80.8773 108.177L80.8906 108.17C82.103 106.791 83.7925 105.966 85.6351 105.847C87.4911 105.728 89.2625 106.333 90.6458 107.543C92.0425 108.763 92.8222 110.416 92.962 112.122C93.0029 112.118 93.0475 112.108 93.1018 112.108C94.9444 111.99 96.7291 112.591 98.1124 113.804C100.054 115.506 100.794 118.054 100.303 120.412C101.601 120.605 102.817 121.159 103.822 122.042C105.205 123.255 106.026 124.94 106.151 126.781C106.237 128.116 105.944 129.411 105.314 130.549C106.345 130.8 107.35 131.296 108.202 132.044C109.571 133.236 110.379 134.894 110.492 136.708C110.577 137.904 110.339 139.07 109.821 140.115C111.343 141.019 112.614 140.913 113.601 139.789C114.633 138.621 114.507 136.834 113.335 135.808L109.203 132.183C108.351 131.439 108.266 130.152 109.022 129.306C109.761 128.46 111.059 128.378 111.897 129.12L116.043 132.744L118.331 134.759C118.904 135.251 119.629 135.495 120.382 135.448C121.149 135.401 121.833 135.061 122.338 134.501C123.356 133.333 123.244 131.546 122.072 130.52L111.925 121.63C111.087 120.886 111.005 119.598 111.744 118.752C112.484 117.906 113.781 117.825 114.633 118.565L124.78 127.451L126.956 129.367C128.128 130.394 129.93 130.278 130.949 129.109C131.452 128.545 131.687 127.822 131.646 127.064C131.605 126.31 131.255 125.62 130.696 125.127L118.75 114.655C117.898 113.911 117.813 112.623 118.556 111.777C119.309 110.931 120.592 110.85 121.444 111.594L133.39 122.064V122.067L135.106 123.569C136.278 124.596 138.08 124.479 139.099 123.311C140.141 122.149 140.028 120.363 138.857 119.337L138.859 119.333ZM105.223 139.539C104.232 140.664 102.502 140.772 101.384 139.787C100.253 138.799 100.14 137.079 101.132 135.955L101.34 135.714C101.493 135.527 101.646 135.351 101.786 135.215C102.318 134.692 103.015 134.427 103.711 134.427C104.354 134.427 104.995 134.651 105.512 135.099C106.044 135.575 106.378 136.238 106.418 136.965C106.459 137.692 106.224 138.391 105.747 138.932L105.223 139.54V139.539ZM97.8249 133.132C96.7932 134.301 94.9907 134.416 93.8192 133.391C93.2611 132.898 92.9273 132.208 92.8694 131.451C92.8285 130.697 93.0635 129.97 93.5673 129.405L97.1404 125.353C97.6273 124.789 98.3261 124.453 99.0818 124.405C99.1495 124.401 99.2082 124.398 99.2759 124.398C99.9604 124.398 100.615 124.643 101.132 125.094C101.691 125.586 102.038 126.276 102.083 127.033C102.123 127.791 101.888 128.514 101.385 129.079L97.8249 133.131V133.132ZM90.4981 126.719C89.4664 127.887 87.678 128.003 86.5057 126.977C85.9333 126.485 85.5995 125.795 85.555 125.038C85.5007 124.284 85.7491 123.557 86.2395 122.992L91.4167 117.115C91.9205 116.552 92.6024 116.215 93.3581 116.167C93.4267 116.164 93.4845 116.16 93.5522 116.16C94.2367 116.16 94.891 116.405 95.4081 116.856C96.5796 117.882 96.706 119.669 95.6743 120.838L90.4963 126.718L90.4981 126.719ZM83.0457 120.455C82.014 121.623 80.2248 121.739 79.0533 120.713C77.8819 119.687 77.7555 117.9 78.7872 116.732L83.9652 110.855C84.4521 110.294 85.1509 109.958 85.9066 109.907C85.9752 109.903 86.033 109.9 86.1007 109.9C86.7852 109.9 87.4395 110.145 87.9567 110.596C89.1281 111.622 89.2412 113.409 88.2219 114.577L83.0448 120.454L83.0457 120.455ZM87.9851 80.0402L71.5564 107.169L67.1457 104.506L83.5602 77.3769L87.9851 80.0402ZM162.725 108.334C162.391 109.156 161.761 109.798 160.937 110.141L154.768 112.74C154.349 112.916 153.916 113.002 153.484 113.002C152.186 113.002 150.957 112.241 150.414 110.977L150.288 110.674C148.684 111.449 148.193 112.223 147.539 113.279C146.702 114.611 145.71 116.201 142.876 117.835C144.425 120.346 144.228 123.671 142.178 125.995C140.826 127.544 138.898 128.338 136.986 128.338C136.54 128.338 136.108 128.294 135.675 128.213C135.495 129.534 134.936 130.774 134.027 131.793C132.675 133.343 130.76 134.134 128.835 134.134C128.222 134.134 127.606 134.052 127.006 133.889C126.781 135.072 126.267 136.21 125.415 137.174C124.203 138.554 122.513 139.378 120.657 139.501C120.503 139.511 120.35 139.514 120.196 139.514C119.539 139.514 118.885 139.416 118.255 139.236C118.03 140.394 117.516 141.512 116.678 142.463C115.308 144.021 113.608 144.804 111.779 144.804C110.287 144.804 108.724 144.277 107.173 143.234C105.988 144.09 104.578 144.525 103.168 144.525C101.577 144.525 99.9729 143.971 98.675 142.84C97.2517 141.59 96.4852 139.874 96.3864 138.121C96.1479 138.145 95.9129 138.159 95.6885 138.159C94.0702 138.159 92.435 137.595 91.1238 136.447C89.7405 135.238 88.9198 133.559 88.7943 131.722C88.6545 131.729 88.5148 131.746 88.3617 131.746C86.7434 131.746 85.1224 131.182 83.8112 130.034C82.4591 128.855 81.6481 127.235 81.495 125.455C81.301 125.472 81.1033 125.485 80.9093 125.485C79.291 125.485 77.6567 124.921 76.3446 123.774C73.4836 121.263 73.2041 116.894 75.7179 114.038L78.1605 111.262C77.7964 110.814 76.9312 110.372 74.6417 109.968C74.015 110.97 72.9246 111.527 71.8208 111.527C71.2351 111.527 70.6494 111.374 70.1037 111.051L64.3675 107.6C63.6145 107.144 63.0697 106.417 62.8587 105.558C62.6504 104.695 62.7902 103.808 63.237 103.051L80.4589 74.6142C80.9191 73.857 81.6446 73.3234 82.5098 73.1095C83.375 72.8991 84.2679 73.0314 85.0236 73.4894L90.7598 76.941C91.5119 77.3964 92.0443 78.1235 92.2686 78.9829C92.4493 79.7543 92.3674 80.5489 92.0166 81.2484C95.409 83.4633 98.059 83.2529 100.406 83.0594C101.969 82.9307 103.673 82.794 105.178 83.5823C106.531 82.4611 108.095 81.2484 109.964 80.0322C110.018 79.9913 110.09 79.9541 110.158 79.9203C114.123 77.9096 118.462 78.9314 123.054 80.0153C127.673 81.109 132.431 82.2338 137.54 80.5959L137.441 80.3749C136.729 78.6935 137.527 76.7431 139.213 76.0337L145.382 73.4353C146.192 73.0891 147.099 73.0855 147.923 73.4184C148.747 73.7513 149.387 74.3834 149.738 75.1984L162.706 105.796C163.06 106.611 163.06 107.511 162.723 108.333L162.725 108.334ZM166.915 108.897C166.915 138.611 142.673 162.788 112.876 162.788C83.0777 162.788 58.8325 138.611 58.8325 108.897C58.8325 79.1835 83.075 55.0064 112.872 55.0064C142.67 55.0064 166.915 79.1835 166.915 108.897ZM84.3177 159.371C66.6766 149.407 54.7583 130.516 54.7583 108.897C54.7583 78.7689 77.9139 53.9438 107.419 51.1882V27.2153C107.419 22.5582 103.607 18.7666 98.9474 18.7666H89.2732V40.7518C89.2732 41.4993 88.8682 42.1917 88.2006 42.545C87.5436 42.8984 86.7363 42.8646 86.106 42.4536L73.1115 33.9099L60.117 42.4536C59.7699 42.6782 59.3782 42.7901 58.9856 42.7901C58.6518 42.7901 58.3145 42.7084 58.0216 42.545C57.3504 42.1917 56.9312 41.4984 56.9312 40.7518V18.7693H12.5649C7.88802 18.7693 4.09328 22.5573 4.09328 27.218V150.928C4.09328 155.585 7.88802 159.373 12.5649 159.373H84.3177V159.37V159.371ZM61.0223 36.9682V18.7701H85.1829V36.9682L74.242 29.7667C73.5575 29.3184 72.6647 29.3184 71.9801 29.7667L61.0223 36.9691V36.9682ZM19.2206 14.69V13.385C19.2206 8.72788 23.0189 4.93629 27.6922 4.93629H114.071C118.734 4.93629 122.543 8.72788 122.543 13.385V51.7342C119.389 51.2077 116.163 50.929 112.869 50.929C112.409 50.929 111.95 50.9361 111.5 50.9459V27.2144C111.5 20.3086 105.863 14.6891 98.9385 14.6891H19.2224L19.2206 14.69ZM171.003 108.897C171.003 140.859 144.918 166.864 112.872 166.864C105.978 166.864 99.3489 165.655 93.1943 163.444C93.1667 163.444 93.1534 163.447 93.1267 163.447H12.5658C5.64394 163.447 0.00390625 157.829 0.00390625 150.922V27.2153C0.00390625 20.3095 5.64126 14.69 12.5658 14.69H15.1339V13.385C15.1339 6.47921 20.7712 0.863281 27.6958 0.863281H114.075C120.997 0.863281 126.637 6.48187 126.637 13.385V52.5731C152.064 58.7528 171.003 81.6585 171.003 108.896V108.897ZM15.5078 58.6338H75.9004C77.0309 58.6338 77.9371 57.7203 77.9371 56.5955C77.9371 55.4707 77.0309 54.5572 75.9004 54.5572H15.5078C14.3773 54.5572 13.4568 55.4707 13.4568 56.5955C13.4568 57.7203 14.3764 58.6338 15.5078 58.6338ZM15.5078 80.2834C14.3773 80.2834 13.4568 79.3699 13.4568 78.2451C13.4568 77.1212 14.3764 76.2069 15.5078 76.2069H56.5431C57.6602 76.2069 58.5797 77.1204 58.5797 78.2451C58.5797 79.3699 57.6602 80.2834 56.5431 80.2834H15.5078ZM15.5078 101.933C14.3773 101.933 13.4568 101.02 13.4568 99.8948C13.4568 98.77 14.3764 97.8565 15.5078 97.8565H49.3381C50.4686 97.8565 51.389 98.77 51.389 99.8948C51.389 101.02 50.4695 101.933 49.3381 101.933H15.5078ZM52.0059 121.544C52.0059 122.669 51.0997 123.583 49.9692 123.583H15.5086C14.3781 123.583 13.4577 122.673 13.4577 121.544C13.4577 120.42 14.3773 119.506 15.5086 119.506H49.9692C51.1006 119.506 52.0059 120.42 52.0059 121.544Z" fill="#FF6600"/>
</g>
<defs>
<clipPath id="clip0_103_95">
<rect width="171" height="166" fill="white"/>
</clipPath>
</defs>
</svg>
